<svg width="612" height="95" viewBox="0 0 612 95" fill="none" xmlns="http://www.w3.org/2000/svg">
<path fill-rule="evenodd" clip-rule="evenodd" d="M97.7432 36.0191C104.68 36.0191 110.185 37.7956 113.961 41.2671C117.744 44.7462 120 50.0366 120 56.5005V94.0005H109L108.921 84.9273C104.388 91.1921 96.9043 94.8423 88.958 94.8423C84.0721 94.8423 79.5911 93.5077 76.3184 90.9156C73.031 88.3116 71.0001 84.466 71 79.5542C71 73.5712 73.4352 69.429 77.6426 66.6724C81.802 63.9474 87.651 62.6023 94.4639 62.0435C98.8656 61.6535 102.362 61.24 104.85 60.4829C107.315 59.7327 108.583 58.7099 108.921 57.2427V56.2007C108.921 52.6423 107.925 49.8418 106.014 47.9302C104.103 46.0192 101.191 44.9117 97.1865 44.9117C93.51 44.9118 90.496 45.829 88.127 47.4966C85.7574 49.1646 83.9919 51.6129 82.8594 54.7408L82.6709 55.2603L72.8291 52.7378L73.0322 52.1177C76.0123 43.0633 84.7124 36.0191 97.7432 36.0191ZM108.921 65.7613C106.301 67.9597 102.206 69.2198 97.1338 69.7076H97.1299L97.126 69.7085C92.3854 70.0989 88.6646 70.6237 86.1299 71.8843C84.8801 72.506 83.945 73.295 83.3174 74.315C82.6893 75.3359 82.3389 76.6367 82.3389 78.3306C82.3389 81.3005 83.5766 83.338 85.457 84.6558C87.3656 85.9931 89.9825 86.6177 92.7393 86.6177C100.442 86.6175 107.941 81.2878 108.921 71.0699V65.7613Z" fill="white"/>
<path fill-rule="evenodd" clip-rule="evenodd" d="M257 36.0782C269.904 36.0783 277.949 42.4286 280.821 51.3898L281.022 52.0168L270.951 54.4084L270.77 53.8918C269.803 51.1519 268.229 48.8443 265.958 47.2199C263.688 45.5964 260.675 44.6242 256.776 44.6242C253.522 44.6242 250.82 45.3573 248.95 46.6555C247.102 47.9393 246.043 49.7873 246.043 52.132C246.043 54.3206 246.918 55.8124 248.399 56.9269C249.825 57.9988 251.825 58.7297 254.209 59.3176L254.691 59.4338H254.694L264.919 61.8791L265.398 61.9914C270.33 63.1637 274.258 64.8342 276.979 67.2892C279.816 69.8477 281 73.1956 281 77.578C281 82.6369 279.363 87.0322 275.641 90.132C271.929 93.2225 266.494 94.9992 259.557 94.9992C252.217 94.9992 246.524 93.0496 242.33 89.9152C238.138 86.782 235.482 82.4924 234.171 77.8752L234 77.2717L243.945 74.7541L244.122 75.2951C245.262 78.7684 247.037 81.5714 249.57 83.508C252.1 85.4418 255.439 86.5509 259.779 86.5509C263.592 86.5509 266.504 85.7056 268.447 84.2414C270.369 82.7938 271.401 80.7004 271.401 78.0431C271.401 75.6762 270.517 74.0463 268.886 72.7843C267.212 71.49 264.734 70.5681 261.523 69.7375L252.516 67.5138C247.664 66.3427 243.578 64.9005 240.702 62.6027C237.784 60.2711 236 57.0913 236 52.5784C236 47.6061 238.269 43.4798 241.96 40.6135C245.638 37.7579 250.841 36.0782 257 36.0782Z" fill="white"/>
<path fill-rule="evenodd" clip-rule="evenodd" d="M498.521 35.1768C506.24 35.1768 512.632 38.018 517.091 42.7344C521.546 47.447 524 53.7919 524 61.158C524 62.521 524 64.8012 524 66.1992H482.032C482.354 72.4462 484.315 77.1711 487.277 80.3535C490.335 83.6378 494.505 85.3301 499.188 85.3301C503.599 85.3301 506.789 83.8831 509.15 81.7607C511.526 79.6257 513.287 76.2759 514.381 73.4326L524.207 75.8262C521.356 84.9501 512.937 94 498.854 94C490.703 93.9999 483.726 91.1661 478.788 86.043C473.852 80.921 471 73.5593 471 64.5879C471 56.5069 473.629 49.1557 478.397 43.8174C483.173 38.4722 490.068 35.1768 498.521 35.1768ZM498.299 43.8467C490.214 43.8467 484.499 49.3667 482.694 57.8623H513.077C512.599 53.9718 511.069 50.5502 508.675 48.0674C506.151 45.4511 502.641 43.8467 498.299 43.8467Z" fill="white"/>
<path fill-rule="evenodd" clip-rule="evenodd" d="M55 94.0003H44V84.0003C40.0457 90.7139 32.971 94.841 24.1855 94.8412C17.169 94.8412 11.1017 91.9834 6.7998 86.8382C2.50497 81.7013 1.72306e-05 74.3245 0 65.3187C0 47.2771 10.8673 36.0179 24.0742 36.0179C32.5738 36.018 39.9135 40.125 44 47.0977V15.0004H55V94.0003ZM26.9648 44.7992C22.3138 44.7993 18.3746 46.7439 15.585 50.2543C12.7861 53.7764 11.1162 58.9139 11.1162 65.3187C11.1162 71.7847 12.7334 76.9801 15.4795 80.5433C18.2147 84.0924 22.0967 86.0599 26.7432 86.0599C36.4183 86.0597 43.3699 77.7778 43.3701 65.6527C43.3701 53.2967 35.9664 44.7992 26.9648 44.7992Z" fill="white"/>
<path fill-rule="evenodd" clip-rule="evenodd" d="M150 36.0784H163V47.0784H150V77.5786C150 79.9178 150.565 81.8638 151.658 83.0561C152.745 84.2415 154.413 85.0786 156.5 85.0786H163V94.142H155.657C150.597 94.142 146.479 92.7198 143.625 89.9536C140.768 87.1845 139 83.2928 139 78.2224V47.0784H131V36.0784H139V26.0786H150V36.0784Z" fill="white"/>
<path fill-rule="evenodd" clip-rule="evenodd" d="M303 48.0508C307.512 41.2684 314.562 36.051 323.5 36.0509C328.704 36.0509 332.565 37.7566 335.304 41.213C338.023 44.6444 340 49.5313 340 56.0508V75.0508V94.0508L329 94.0782V57.4908C329 52.6588 327.733 49.5604 326.111 47.7217C324.506 45.9023 322.152 45.1485 319.076 45.1485C310.951 45.1488 304.879 52.8101 303 61.5508V78.0508V94.0508H292V15.0509H303V48.0508Z" fill="white"/>
<path fill-rule="evenodd" clip-rule="evenodd" d="M427 61.4998L452 35.9998H465L438.675 62.5801L465 93.9998H452L431.909 69.332L427 73.9998V93.9998H416V15H427V61.4998Z" fill="white"/>
<path fill-rule="evenodd" clip-rule="evenodd" d="M200.743 36.0786C207.68 36.0786 213.185 37.855 216.961 41.3266C220.744 44.8057 223 50.0961 223 56.56V94.0786H212L211.921 84.9868C207.388 91.2515 199.904 94.9017 191.958 94.9018C187.072 94.9018 182.591 93.5672 179.318 90.975C176.031 88.3711 174 84.5254 174 79.6137C174 73.6306 176.435 69.4884 180.643 66.7319C184.802 64.0068 190.651 62.6618 197.464 62.103C201.866 61.7129 205.362 61.2995 207.85 60.5424C210.315 59.7922 211.583 58.7694 211.921 57.3022V56.2602C211.921 52.7018 210.925 49.9013 209.014 47.9897C207.103 46.0786 204.191 44.9711 200.187 44.9711C196.51 44.9712 193.496 45.8885 191.127 47.5561C188.757 49.2241 186.992 51.6724 185.859 54.8002L185.671 55.3198L175.829 52.7973L176.032 52.1772C179.012 43.1228 187.712 36.0786 200.743 36.0786ZM211.921 65.8207C209.301 68.0192 205.206 69.2793 200.134 69.767H200.13L200.126 69.768C195.385 70.1584 191.665 70.6832 189.13 71.9438C187.88 72.5654 186.945 73.3544 186.317 74.3745C185.689 75.3953 185.339 76.6961 185.339 78.3901C185.339 81.3599 186.577 83.3975 188.457 84.7153C190.366 86.0526 192.983 86.6772 195.739 86.6772C203.442 86.677 210.941 81.3473 211.921 71.1293V65.8207Z" fill="white"/>
<path fill-rule="evenodd" clip-rule="evenodd" d="M377.743 36.0782C384.68 36.0782 390.185 37.8547 393.961 41.3263C397.744 44.8053 400 50.0957 400 56.5596V94.0596H389L388.921 84.9864C384.388 91.2512 376.904 94.9014 368.958 94.9014C364.072 94.9014 359.591 93.5668 356.318 90.9747C353.031 88.3708 351 84.5251 351 79.6133C351 73.6303 353.435 69.4881 357.643 66.7315C361.802 64.0065 367.651 62.6614 374.464 62.1026C378.866 61.7126 382.362 61.2991 384.85 60.5421C387.315 59.7918 388.583 58.769 388.921 57.3018V56.2598C388.921 52.7014 387.925 49.9009 386.014 47.9893C384.103 46.0783 381.191 44.9708 377.187 44.9708C373.51 44.9709 370.496 45.8881 368.127 47.5557C365.757 49.2237 363.992 51.672 362.859 54.7999L362.671 55.3194L352.829 52.7969L353.032 52.1768C356.012 43.1224 364.712 36.0782 377.743 36.0782ZM388.921 65.8204C386.301 68.0189 382.206 69.279 377.134 69.7667H377.13L377.126 69.7676C372.385 70.158 368.665 70.6828 366.13 71.9434C364.88 72.5651 363.945 73.3541 363.317 74.3741C362.689 75.395 362.339 76.6958 362.339 78.3897C362.339 81.3596 363.577 83.3971 365.457 84.7149C367.366 86.0522 369.983 86.6768 372.739 86.6768C380.442 86.6766 387.941 81.3469 388.921 71.129V65.8204Z" fill="white"/>
<path d="M546 38.3426C546 34.7226 548.918 31.777 552.538 31.75C560.097 31.6937 566.09 31.6837 573.728 31.6818C574.295 31.6817 574.861 31.6086 575.409 31.4631C575.436 31.456 575.463 31.4489 575.489 31.4418C578.352 30.6818 580.324 28.0795 580.324 25.1177L580.321 6.60085C580.321 2.95544 583.276 -2.58612e-06 586.921 -2.25791e-06L605.4 -5.94214e-07C609.045 -2.66039e-07 612 2.95492 612 6.6L612 27.7203C612 31.3654 609.045 34.3203 605.4 34.3203L584.407 34.3203L583.722 34.3784C580.305 34.668 577.68 37.5258 577.68 40.9548L577.68 59.4C577.68 63.0451 574.725 66 571.08 66L552.6 66C548.955 66 546 63.0451 546 59.4L546 38.3426Z" fill="white"/>
</svg>
