<svg width="100" height="100" viewBox="0 0 100 100" fill="none" xmlns="http://www.w3.org/2000/svg">
<path d="M1.55607e-05 58.0954C1.60267e-05 52.6106 4.4208 48.1475 9.90547 48.1065C21.3582 48.0209 30.4387 48.0052 42.0095 48.0022C42.8693 48.002 43.7267 47.8913 44.5577 47.6708C44.5986 47.66 44.6395 47.6491 44.6804 47.6383C49.0177 46.4866 52.0055 42.5438 52.0049 38.0563L52.0013 10.0013C52.0006 4.47793 56.478 4.52739e-07 62.0013 9.5002e-07L90 3.47081e-06C95.5229 3.96805e-06 100 4.47716 100 10L100 42C100 47.5229 95.5229 52 90 52L58.2002 52L57.1548 52.0887C51.9782 52.5278 48 56.8577 48 62.0529L48 90C48 95.5228 43.5229 100 38 100L10 100C4.47716 100 1.23809e-05 95.5228 1.28501e-05 90L1.55607e-05 58.0954Z" fill="#101010"/>
</svg>
