<svg width="525" height="80" viewBox="0 0 525 80" fill="none" xmlns="http://www.w3.org/2000/svg">
<path fill-rule="evenodd" clip-rule="evenodd" d="M97.7432 21.0191C104.68 21.0191 110.185 22.7956 113.961 26.2671C117.744 29.7462 120 35.0366 120 41.5005V79.0005H109L108.921 69.9273C104.388 76.1921 96.9043 79.8423 88.958 79.8423C84.0721 79.8423 79.5911 78.5077 76.3184 75.9156C73.031 73.3116 71.0001 69.466 71 64.5542C71 58.5712 73.4352 54.429 77.6426 51.6724C81.802 48.9474 87.651 47.6023 94.4639 47.0435C98.8656 46.6535 102.362 46.24 104.85 45.4829C107.315 44.7327 108.583 43.7099 108.921 42.2427V41.2007C108.921 37.6423 107.925 34.8418 106.014 32.9302C104.103 31.0192 101.191 29.9117 97.1865 29.9117C93.51 29.9118 90.496 30.829 88.127 32.4966C85.7574 34.1646 83.9919 36.6129 82.8594 39.7408L82.6709 40.2603L72.8291 37.7378L73.0322 37.1177C76.0123 28.0633 84.7124 21.0191 97.7432 21.0191ZM108.921 50.7613C106.301 52.9597 102.206 54.2198 97.1338 54.7076H97.1299L97.126 54.7085C92.3854 55.0989 88.6646 55.6237 86.1299 56.8843C84.8801 57.506 83.945 58.295 83.3174 59.315C82.6893 60.3359 82.3389 61.6367 82.3389 63.3306C82.3389 66.3005 83.5766 68.338 85.457 69.6558C87.3656 70.9931 89.9825 71.6177 92.7393 71.6177C100.442 71.6175 107.941 66.2878 108.921 56.0699V50.7613Z" fill="#101010"/>
<path fill-rule="evenodd" clip-rule="evenodd" d="M257 21.0782C269.904 21.0783 277.949 27.4286 280.821 36.3898L281.022 37.0168L270.951 39.4084L270.77 38.8918C269.803 36.1519 268.229 33.8443 265.958 32.2199C263.688 30.5964 260.675 29.6242 256.776 29.6242C253.522 29.6242 250.82 30.3573 248.95 31.6555C247.102 32.9393 246.043 34.7873 246.043 37.132C246.043 39.3206 246.918 40.8124 248.399 41.9269C249.825 42.9988 251.825 43.7297 254.209 44.3176L254.691 44.4338H254.694L264.919 46.8791L265.398 46.9914C270.33 48.1637 274.258 49.8342 276.979 52.2892C279.816 54.8477 281 58.1956 281 62.578C281 67.6369 279.363 72.0322 275.641 75.132C271.929 78.2225 266.494 79.9992 259.557 79.9992C252.217 79.9992 246.524 78.0496 242.33 74.9152C238.138 71.782 235.482 67.4924 234.171 62.8752L234 62.2717L243.945 59.7541L244.122 60.2951C245.262 63.7684 247.037 66.5714 249.57 68.508C252.1 70.4418 255.439 71.5509 259.779 71.5509C263.592 71.5509 266.504 70.7056 268.447 69.2414C270.369 67.7938 271.401 65.7004 271.401 63.0431C271.401 60.6762 270.517 59.0463 268.886 57.7843C267.212 56.49 264.734 55.5681 261.523 54.7375L252.516 52.5138C247.664 51.3427 243.578 49.9005 240.702 47.6027C237.784 45.2711 236 42.0913 236 37.5784C236 32.6061 238.269 28.4798 241.96 25.6135C245.638 22.7579 250.841 21.0782 257 21.0782Z" fill="#101010"/>
<path fill-rule="evenodd" clip-rule="evenodd" d="M498.521 20.1768C506.24 20.1768 512.632 23.018 517.091 27.7344C521.546 32.447 524 38.7919 524 46.158C524 47.521 524 49.8012 524 51.1992H482.032C482.354 57.4462 484.315 62.1711 487.277 65.3535C490.335 68.6378 494.505 70.3301 499.188 70.3301C503.599 70.3301 506.789 68.8831 509.15 66.7607C511.526 64.6257 513.287 61.2759 514.381 58.4326L524.207 60.8262C521.356 69.9501 512.937 79 498.854 79C490.703 78.9999 483.726 76.1661 478.788 71.043C473.852 65.921 471 58.5593 471 49.5879C471 41.5069 473.629 34.1557 478.397 28.8174C483.173 23.4722 490.068 20.1768 498.521 20.1768ZM498.299 28.8467C490.214 28.8467 484.499 34.3667 482.694 42.8623H513.077C512.599 38.9718 511.069 35.5502 508.675 33.0674C506.151 30.4511 502.641 28.8467 498.299 28.8467Z" fill="#101010"/>
<path fill-rule="evenodd" clip-rule="evenodd" d="M55 79.0003H44V69.0003C40.0457 75.7139 32.971 79.841 24.1855 79.8412C17.169 79.8412 11.1017 76.9834 6.7998 71.8382C2.50497 66.7013 1.72306e-05 59.3245 0 50.3187C0 32.2771 10.8673 21.0179 24.0742 21.0179C32.5738 21.018 39.9135 25.125 44 32.0977V0.000353009H55V79.0003ZM26.9648 29.7992C22.3138 29.7993 18.3746 31.7439 15.585 35.2543C12.7861 38.7764 11.1162 43.9139 11.1162 50.3187C11.1162 56.7847 12.7334 61.9801 15.4795 65.5433C18.2147 69.0924 22.0967 71.0599 26.7432 71.0599C36.4183 71.0597 43.3699 62.7778 43.3701 50.6527C43.3701 38.2967 35.9664 29.7992 26.9648 29.7992Z" fill="#101010"/>
<path fill-rule="evenodd" clip-rule="evenodd" d="M150 21.0784H163V32.0784H150V62.5786C150 64.9178 150.565 66.8638 151.658 68.0561C152.745 69.2415 154.413 70.0786 156.5 70.0786H163V79.142H155.657C150.597 79.142 146.479 77.7198 143.625 74.9536C140.768 72.1845 139 68.2928 139 63.2224V32.0784H131V21.0784H139V11.0786H150V21.0784Z" fill="#101010"/>
<path fill-rule="evenodd" clip-rule="evenodd" d="M303 33.0508C307.512 26.2684 314.562 21.051 323.5 21.0509C328.704 21.0509 332.565 22.7566 335.304 26.213C338.023 29.6444 340 34.5313 340 41.0508V60.0508V79.0508L329 79.0782V42.4908C329 37.6588 327.733 34.5604 326.111 32.7217C324.506 30.9023 322.152 30.1485 319.076 30.1485C310.951 30.1488 304.879 37.8101 303 46.5508V63.0508V79.0508H292V0.0508523H303V33.0508Z" fill="#101010"/>
<path fill-rule="evenodd" clip-rule="evenodd" d="M427 46.4998L452 20.9998H465L438.675 47.5801L465 78.9998H452L431.909 54.332L427 58.9998V78.9998H416V0H427V46.4998Z" fill="#101010"/>
<path fill-rule="evenodd" clip-rule="evenodd" d="M200.743 21.0786C207.68 21.0786 213.185 22.855 216.961 26.3266C220.744 29.8057 223 35.0961 223 41.56V79.0786H212L211.921 69.9868C207.388 76.2515 199.904 79.9017 191.958 79.9018C187.072 79.9018 182.591 78.5672 179.318 75.975C176.031 73.3711 174 69.5254 174 64.6137C174 58.6306 176.435 54.4884 180.643 51.7319C184.802 49.0068 190.651 47.6618 197.464 47.103C201.866 46.7129 205.362 46.2995 207.85 45.5424C210.315 44.7922 211.583 43.7694 211.921 42.3022V41.2602C211.921 37.7018 210.925 34.9013 209.014 32.9897C207.103 31.0786 204.191 29.9711 200.187 29.9711C196.51 29.9712 193.496 30.8885 191.127 32.5561C188.757 34.2241 186.992 36.6724 185.859 39.8002L185.671 40.3198L175.829 37.7973L176.032 37.1772C179.012 28.1228 187.712 21.0786 200.743 21.0786ZM211.921 50.8207C209.301 53.0192 205.206 54.2793 200.134 54.767H200.13L200.126 54.768C195.385 55.1584 191.665 55.6832 189.13 56.9438C187.88 57.5654 186.945 58.3544 186.317 59.3745C185.689 60.3953 185.339 61.6961 185.339 63.3901C185.339 66.3599 186.577 68.3975 188.457 69.7153C190.366 71.0526 192.983 71.6772 195.739 71.6772C203.442 71.677 210.941 66.3473 211.921 56.1293V50.8207Z" fill="#101010"/>
<path fill-rule="evenodd" clip-rule="evenodd" d="M377.743 21.0782C384.68 21.0782 390.185 22.8547 393.961 26.3263C397.744 29.8053 400 35.0957 400 41.5596V79.0596H389L388.921 69.9864C384.388 76.2512 376.904 79.9014 368.958 79.9014C364.072 79.9014 359.591 78.5668 356.318 75.9747C353.031 73.3708 351 69.5251 351 64.6133C351 58.6303 353.435 54.4881 357.643 51.7315C361.802 49.0065 367.651 47.6614 374.464 47.1026C378.866 46.7126 382.362 46.2991 384.85 45.5421C387.315 44.7918 388.583 43.769 388.921 42.3018V41.2598C388.921 37.7014 387.925 34.9009 386.014 32.9893C384.103 31.0783 381.191 29.9708 377.187 29.9708C373.51 29.9709 370.496 30.8881 368.127 32.5557C365.757 34.2237 363.992 36.672 362.859 39.7999L362.671 40.3194L352.829 37.7969L353.032 37.1768C356.012 28.1224 364.712 21.0782 377.743 21.0782ZM388.921 50.8204C386.301 53.0189 382.206 54.279 377.134 54.7667H377.13L377.126 54.7676C372.385 55.158 368.665 55.6828 366.13 56.9434C364.88 57.5651 363.945 58.3541 363.317 59.3741C362.689 60.395 362.339 61.6958 362.339 63.3897C362.339 66.3596 363.577 68.3971 365.457 69.7149C367.366 71.0522 369.983 71.6768 372.739 71.6768C380.442 71.6766 387.941 66.3469 388.921 56.129V50.8204Z" fill="#101010"/>
</svg>
